<?xml version="1.0" encoding="utf-8"?>
<!-- Generator: Adobe Illustrator 19.2.1, SVG Export Plug-In . SVG Version: 6.00 Build 0)  -->
<svg version="1.1" id="Capa_1" xmlns="http://www.w3.org/2000/svg" xmlns:xlink="http://www.w3.org/1999/xlink" x="0px" y="0px"
	 viewBox="0 0 372 183.1" style="enable-background:new 0 0 372 183.1;" xml:space="preserve">
<metadata><?xpacket begin="﻿" id="W5M0MpCehiHzreSzNTczkc9d"?>
<x:xmpmeta xmlns:x="adobe:ns:meta/" x:xmptk="Adobe XMP Core 5.6-c111 79.158366, 2015/09/25-01:12:00        ">
   <rdf:RDF xmlns:rdf="http://www.w3.org/1999/02/22-rdf-syntax-ns#">
      <rdf:Description rdf:about=""/>
   </rdf:RDF>
</x:xmpmeta>
<?xpacket end="w"?></metadata>
<style type="text/css">
	.st0{fill:#E2231A;}
</style>
<g>
	<g>
		<path d="M262.5,106.4h-0.6l-0.5-1.7c-0.7,0.6-1.4,1.1-2.2,1.4c-0.8,0.4-1.6,0.5-2.4,0.5h-1.1c-0.7,0-1.3-0.1-1.9-0.4
			c-0.5-0.3-0.9-0.6-1.2-1.1c-0.3-0.5-0.5-1-0.5-1.6c0-0.6,0.1-1.3,0.3-2l4.1-11.2c0.3-0.7,0.6-1.4,1.1-2s1.1-1.2,1.7-1.6
			c0.6-0.5,1.3-0.8,2-1.1c0.7-0.3,1.4-0.4,2.2-0.4h1.5c0.7,0,1.3,0.1,1.9,0.4c0.5,0.3,0.9,0.6,1.2,1.1s0.5,1,0.5,1.6
			c0,0.6-0.1,1.3-0.3,2l-0.3,0.8l-2,0.3l0.4-1.1c0.2-0.5,0.2-0.9,0.2-1.3c0-0.4-0.1-0.8-0.3-1.1c-0.2-0.3-0.5-0.5-0.8-0.7
			c-0.3-0.2-0.7-0.3-1.2-0.3H263c-0.5,0-0.9,0.1-1.4,0.3c-0.5,0.2-0.9,0.4-1.3,0.7c-0.4,0.3-0.8,0.7-1.1,1.1
			c-0.3,0.4-0.6,0.8-0.7,1.3l-4.1,11.2c-0.2,0.5-0.2,0.9-0.2,1.3c0,0.4,0.1,0.8,0.3,1.1c0.2,0.3,0.5,0.5,0.8,0.7
			c0.3,0.2,0.7,0.3,1.2,0.3h1.3c0.5,0,0.9-0.1,1.4-0.3c0.5-0.2,0.9-0.4,1.3-0.7c0.4-0.3,0.8-0.7,1.1-1.1c0.3-0.4,0.6-0.8,0.7-1.3
			l1.6-4.4h-3.3l0.7-1.8h5.2L262.5,106.4z"/>
		<path d="M278,106.4l-2.4-8.9H273l-3.3,8.9h-1.9l7.6-20.9h6.6c0.7,0,1.3,0.1,1.9,0.4c0.5,0.3,0.9,0.6,1.2,1.1s0.5,1,0.5,1.6
			c0,0.6-0.1,1.3-0.3,2l-0.6,1.7c-0.3,0.7-0.6,1.4-1.1,2c-0.5,0.6-1.1,1.2-1.7,1.6s-1.3,0.8-2,1.1c-0.7,0.3-1.4,0.4-2.1,0.4l2.4,8.9
			H278z M283.5,90.6c0.2-0.5,0.2-0.9,0.2-1.3c0-0.4-0.1-0.8-0.3-1.1c-0.2-0.3-0.5-0.5-0.8-0.7c-0.3-0.2-0.7-0.3-1.2-0.3h-4.7
			l-3.1,8.4h4.7c0.5,0,0.9-0.1,1.4-0.3c0.5-0.2,0.9-0.4,1.3-0.7c0.4-0.3,0.8-0.7,1.1-1.1c0.3-0.4,0.6-0.8,0.7-1.3L283.5,90.6z"/>
		<path d="M297.1,103.5c-0.5,0.6-1.1,1.2-1.7,1.6c-0.6,0.5-1.3,0.8-2,1.1c-0.7,0.3-1.4,0.4-2.1,0.4h-1.5c-0.7,0-1.3-0.1-1.9-0.4
			c-0.5-0.3-0.9-0.6-1.2-1.1c-0.3-0.5-0.5-1-0.5-1.6c0-0.6,0.1-1.3,0.3-2l4.1-11.2c0.3-0.7,0.6-1.4,1.1-2s1.1-1.2,1.7-1.6
			c0.6-0.5,1.3-0.8,2-1.1c0.7-0.3,1.4-0.4,2.2-0.4h1.5c0.7,0,1.3,0.1,1.9,0.4c0.5,0.3,0.9,0.6,1.2,1.1s0.5,1,0.5,1.6
			c0,0.6-0.1,1.3-0.3,2l-4.1,11.2C298,102.2,297.6,102.9,297.1,103.5z M300.4,90.3c0.2-0.5,0.2-0.9,0.2-1.3c0-0.4-0.1-0.8-0.3-1.1
			c-0.2-0.3-0.5-0.5-0.8-0.7c-0.3-0.2-0.7-0.3-1.2-0.3H297c-0.5,0-0.9,0.1-1.4,0.3c-0.5,0.2-0.9,0.4-1.3,0.7
			c-0.4,0.3-0.8,0.7-1.1,1.1c-0.3,0.4-0.6,0.8-0.7,1.3l-4.1,11.2c-0.2,0.5-0.2,0.9-0.2,1.3c0,0.4,0.1,0.8,0.3,1.1
			c0.2,0.3,0.5,0.5,0.8,0.7c0.3,0.2,0.7,0.3,1.2,0.3h1.3c0.5,0,0.9-0.1,1.4-0.3c0.5-0.2,0.9-0.4,1.3-0.7c0.4-0.3,0.8-0.7,1.1-1.1
			c0.3-0.4,0.6-0.8,0.7-1.3L300.4,90.3z"/>
		<path d="M314.3,103.5c-0.5,0.6-1.1,1.2-1.7,1.6c-0.6,0.5-1.3,0.8-2,1.1c-0.7,0.3-1.4,0.4-2.1,0.4h-1.5c-0.7,0-1.3-0.1-1.9-0.4
			c-0.5-0.3-0.9-0.6-1.2-1.1c-0.3-0.5-0.5-1-0.5-1.6c0-0.6,0.1-1.3,0.3-2l5.9-16.1h1.9l-5.9,16.1c-0.2,0.5-0.2,0.9-0.2,1.3
			c0,0.4,0.1,0.8,0.3,1.1c0.2,0.3,0.5,0.5,0.8,0.7c0.3,0.2,0.7,0.3,1.2,0.3h1.3c0.5,0,0.9-0.1,1.4-0.3c0.5-0.2,0.9-0.4,1.3-0.7
			c0.4-0.3,0.8-0.7,1.1-1.1c0.3-0.4,0.6-0.8,0.7-1.3l5.9-16.1h1.9l-5.9,16.1C315.2,102.2,314.8,102.9,314.3,103.5z"/>
		<path d="M334.8,95.2c-0.5,0.6-1.1,1.2-1.7,1.6c-0.6,0.5-1.3,0.8-2,1.1c-0.7,0.3-1.4,0.4-2.2,0.4h-4.7l-2.9,8h-1.9l7.6-20.9h6.6
			c0.7,0,1.3,0.1,1.9,0.4c0.5,0.3,0.9,0.6,1.2,1.1s0.5,1,0.5,1.6c0,0.6-0.1,1.3-0.3,2l-0.9,2.6C335.7,93.9,335.3,94.6,334.8,95.2z
			 M335,90.6c0.2-0.5,0.2-0.9,0.2-1.3c0-0.4-0.1-0.8-0.3-1.1c-0.2-0.3-0.5-0.5-0.8-0.7c-0.3-0.2-0.7-0.3-1.2-0.3h-4.7l-3.4,9.3h4.7
			c0.5,0,0.9-0.1,1.4-0.3c0.5-0.2,0.9-0.4,1.3-0.7c0.4-0.3,0.8-0.7,1.1-1.1c0.3-0.4,0.6-0.8,0.7-1.3L335,90.6z"/>
	</g>
	<g>
		<g>
			<polygon points="114.3,96.8 115.7,92.2 118,85.8 124.4,85.8 117,106 110.8,106 107.6,95 106.2,99.6 103.9,106 97.5,106 
				104.9,85.8 111.1,85.8 			"/>
		</g>
		<g>
			<path d="M132.3,95l1.6-4.5h1.9c1.4,0,3.5,0.3,2.8,2.1c-0.6,1.7-2,2.4-3.5,2.4H132.3z M128.3,106l2.3-6.3h3.3
				c5.8,0,9.4-2.8,11-7.1c1.5-4.2-0.3-6.8-6.1-6.8H129l-7.4,20.2H128.3z"/>
		</g>
		<g>
			<polygon points="143.5,106 150.9,85.8 157.5,85.8 151.9,101.3 161,101.3 159.3,106 			"/>
		</g>
		<g>
			<path d="M176.7,99.1h-4.2l4.7-7.2L176.7,99.1z M168,106l1.7-2.7h6.6l-0.2,2.7h6.6l0.1-20.2h-6.7L161.5,106H168z"/>
		</g>
		<g>
			<polygon points="189.8,85.8 208.4,85.8 206.4,91.1 200.5,91.1 195,106 188.4,106 193.8,91.1 187.9,91.1 			"/>
		</g>
		<g>
			<polygon points="205.1,106 212.4,85.8 228.9,85.8 227.2,90.5 217.3,90.5 216.3,93.4 224.6,93.4 222.9,98.1 214.6,98.1 
				213.4,101.3 223.7,101.3 222,106 			"/>
		</g>
		<g>
			<path d="M238.3,90.5h3.1c1.5,0,2.4,0.7,1.9,2.1c-0.5,1.4-1.8,1.9-3.8,1.9h-2.6L238.3,90.5z M237.2,99c3.1,0,3.2,0.9,2.3,3.5
				c-0.7,1.8-1,3.1-1,3.5h6.7l0.2-0.6c-0.8,0-0.4-0.9,0.6-3.5c1.5-4.1,0.4-4.6-1.5-5.4c2.6-0.6,4.3-2.6,5.2-4.9
				c1.4-3.9-0.1-5.8-6.9-5.8h-9.6L226,106h6.6l2.6-7.1H237.2z"/>
		</g>
	</g>
	<path class="st0" d="M96.6,85.8c-0.2,3-0.9,6.1-2.1,9.3c-1.4,3.8-3.4,7.5-5.8,10.9v0H63.1l2-5.6h15.3l3.3-9H68.5l2-5.6H96.6z"/>
	<g>
		<path class="st0" d="M35.3,115l3.3-9h11.9l2-5.6H25.2c0,0,0,0,0,0c-3.3,16.2,6.2,28.6,23.1,28.6c11.2,0,23.2-5.5,32.4-13.9
			c0,0,0.1-0.1,0.1-0.1H35.3z"/>
	</g>
	<g>
		<path class="st0" d="M55.7,91.4l2-5.6h-5.7l3.3-9h40.5h0C93.3,67.4,85,61.1,73,61.1c-17.4,0-36.5,13.1-44.6,30
			c-0.1,0.1-0.1,0.2-0.2,0.3H55.7z"/>
	</g>
</g>
</svg>
